<?xml version="1.0" encoding="UTF-8"?>
<svg version="1.1" xmlns="http://www.w3.org/2000/svg" width="328" height="387">
<path d="M0 0 C1.53979141 -0.00544097 3.07957761 -0.01257453 4.61935425 -0.02124023 C8.74559122 -0.03924402 12.87142149 -0.03250232 16.99766421 -0.01972389 C21.35205464 -0.00947361 25.70641423 -0.01902263 30.06080627 -0.02526855 C37.36921325 -0.0325112 44.67745765 -0.02304763 51.98583984 -0.00390625 C60.38780779 0.01784778 68.78938711 0.01080812 77.19134563 -0.01121187 C84.45478803 -0.02947287 91.7181147 -0.03187213 98.98157269 -0.0214572 C103.29788854 -0.01527952 107.61402289 -0.01422577 111.93032646 -0.02760315 C145.14480683 -0.11630659 173.04255618 3.65565104 197.94360352 27.67382812 C219.98859635 49.60676576 226.33654949 76.37281454 227.36547852 106.47851562 C227.40286133 107.45820312 227.44024414 108.43789062 227.47875977 109.44726562 C227.50905273 110.32624512 227.5393457 111.20522461 227.57055664 112.11083984 C227.6873221 114.46958409 227.6873221 114.46958409 228.26928711 116.51098633 C228.86674709 118.95403288 228.88966423 121.17888239 228.89282227 123.69335938 C228.89411133 124.68658203 228.89540039 125.67980469 228.89672852 126.703125 C228.89286133 127.73501953 228.88899414 128.76691406 228.88500977 129.83007812 C228.88887695 130.85037109 228.89274414 131.87066406 228.89672852 132.921875 C228.89124042 137.16691862 228.88563219 141.3034166 228.18969727 145.49804688 C227.58571024 148.31740309 227.58571024 148.31740309 228.22045898 150.21655273 C229.00768361 153.57383422 228.94305706 156.92312984 228.96313477 160.35351562 C228.96883484 161.11048737 228.97453491 161.86745911 228.98040771 162.64736938 C228.9898349 164.24601859 228.99638261 165.84468703 229.00024414 167.44335938 C229.00994885 169.8773009 229.04099225 172.31039708 229.07250977 174.74414062 C229.07904078 176.30142731 229.08429087 177.85871999 229.08813477 179.41601562 C229.10048157 180.13808197 229.11282837 180.86014832 229.12554932 181.60409546 C229.10481038 186.35407799 228.04264857 189.39796404 225.76000977 193.51757812 C226.02891176 195.72077961 226.02891176 195.72077961 227.07250977 197.70507812 C229.37491295 203.65128461 229.89519973 209.5984699 228.10375977 215.78320312 C225.49029748 221.68602311 221.27078388 226.0361209 215.30688477 228.55273438 C213.13739723 229.28613032 210.9766942 229.94455766 208.76000977 230.51757812 C209.68813477 231.23945313 210.61625977 231.96132812 211.57250977 232.70507812 C216.16434349 236.53882609 218.39200032 240.68886452 218.96313477 246.63085938 C219.14080308 254.96646454 216.3541992 260.49306643 210.76000977 266.51757812 C210.10000977 266.84757812 209.44000977 267.17757813 208.76000977 267.51757812 C209.82928711 267.81148438 209.82928711 267.81148438 210.92016602 268.11132812 C218.11908867 270.35917477 222.65759731 273.09485076 226.76000977 279.51757812 C228.86022875 283.75371933 229.08141784 287.67384129 229.09594727 292.31835938 C229.10260406 293.07239548 229.10926086 293.82643158 229.11611938 294.60331726 C229.12622403 296.20109637 229.13093708 297.79891749 229.13061523 299.39672852 C229.13492795 301.78477647 229.17109641 304.17087996 229.20922852 306.55859375 C229.30906147 319.92640804 227.46649722 332.87545839 221.07250977 344.83007812 C220.73074707 345.48758057 220.38898438 346.14508301 220.03686523 346.82250977 C209.81201776 365.79662069 193.03049837 377.75091964 173.01391602 384.50976562 C160.92362165 387.71474319 148.47180251 387.80977171 136.06298828 387.77636719 C134.34291436 387.77908486 132.6228416 387.7826501 130.902771 387.7869873 C126.27666983 387.79602206 121.65065893 387.79260408 117.0245564 387.78622913 C112.15405891 387.78112172 107.28356851 387.78587372 102.41307068 387.78900146 C94.23695506 387.79262775 86.06087572 387.78787763 77.88476562 387.77832031 C68.47066035 387.76744202 59.05664178 387.77096224 49.64253861 387.78197312 C41.51975284 387.79108864 33.39699296 387.79231043 25.27420372 387.78709579 C20.44041809 387.78399895 15.60667302 387.78350303 10.77289009 387.79016876 C6.22468187 387.79600391 1.67658393 387.7918342 -2.87161255 387.78038025 C-4.52744935 387.77776614 -6.18329565 387.77844207 -7.83912849 387.78290558 C-34.17682454 387.84728232 -56.64204336 383.53408504 -76.23999023 364.51757812 C-76.86518555 363.96585937 -77.49038086 363.41414063 -78.13452148 362.84570312 C-91.15783896 350.96890796 -98.32570425 332.11548703 -99.41194916 314.77200317 C-99.6983693 306.97073318 -99.6606377 299.16661823 -99.63842773 291.36132812 C-99.6404522 288.84362707 -99.64336674 286.3259266 -99.64712524 283.80822754 C-99.65208475 277.89191296 -99.64169745 271.97576051 -99.62567294 266.0594697 C-99.61275715 260.67738401 -99.62194261 255.29551054 -99.63658273 249.91343832 C-99.65186694 244.0577205 -99.65021409 238.20211699 -99.64143753 232.34638977 C-99.63944048 229.86810768 -99.64187737 227.38981781 -99.64887619 224.9115448 C-99.65650583 221.45384267 -99.64486761 217.99672141 -99.62817383 214.5390625 C-99.63424652 213.52181091 -99.64031921 212.50455933 -99.64657593 211.45648193 C-99.59465592 205.64329531 -98.80570374 201.72484326 -96.23999023 196.51757812 C-96.44869469 193.66528388 -97.20666216 191.60026435 -98.27360535 188.95320129 C-99.50081508 184.5903121 -99.52751637 180.61906335 -99.51464844 176.11010742 C-99.51975937 175.18068832 -99.5248703 174.25126923 -99.53013611 173.29368591 C-99.54401229 170.22632361 -99.54307522 167.15918683 -99.54077148 164.09179688 C-99.54466265 161.94391294 -99.54899818 159.79602977 -99.55375671 157.64814758 C-99.56121703 153.14162711 -99.56093129 148.63518495 -99.55566406 144.12866211 C-99.54990357 138.39757406 -99.56671821 132.66681279 -99.59000874 126.93577862 C-99.6048661 122.49406609 -99.60560102 118.05242978 -99.60249901 113.61069679 C-99.60300734 111.50072399 -99.60815166 109.39074636 -99.61831093 107.28079796 C-99.741346 78.12622714 -93.97045628 51.60978131 -72.98608398 30.22851562 C-72.07987305 29.33390625 -71.17366211 28.43929688 -70.23999023 27.51757812 C-69.4265918 26.70546875 -68.61319336 25.89335937 -67.77514648 25.05664062 C-49.11608727 7.33507061 -25.2125433 -0.15313074 0 0 Z " fill="#FFFCFA" transform="translate(99.239990234375,-0.517578125)"/>
<path d="M0 0 C1.43657593 -0.00627548 2.87315027 -0.01292322 4.3097229 -0.01991272 C9.00383399 -0.04082633 13.69794494 -0.05130309 18.39208984 -0.0612793 C20.01634105 -0.06533159 21.6405921 -0.06944864 23.26484299 -0.07362938 C30.89905788 -0.09265306 38.53326328 -0.10689003 46.16749728 -0.11524135 C54.94356962 -0.12500374 63.71938909 -0.151309 72.49537241 -0.19174224 C79.30334155 -0.22201892 86.11123864 -0.2367211 92.91927373 -0.24002236 C96.9740745 -0.24235959 101.02860427 -0.25114535 105.08333206 -0.27648354 C108.903503 -0.29997303 112.72322844 -0.30391503 116.54345322 -0.29372215 C117.93406925 -0.29323171 119.32470883 -0.29940431 120.71525574 -0.3132782 C141.23280041 -0.50629502 158.92939225 6.99061907 173.91552734 20.86450195 C181.9253192 29.23613245 189.72802734 41.3371491 189.72802734 53.17700195 C102.93802734 53.17700195 16.14802734 53.17700195 -73.27197266 53.17700195 C-70.6460535 41.36036574 -66.2738134 32.23297741 -58.27197266 23.17700195 C-57.19496094 21.94143555 -57.19496094 21.94143555 -56.09619141 20.6809082 C-40.7921006 4.22462726 -21.7217917 0.041891 0 0 Z " fill="#FFFEFE" transform="translate(104.27197265625,28.822998046875)"/>
<path d="M0 0 C1.46347816 -0.0043585 2.92695405 -0.00954539 4.39042664 -0.01548767 C8.33077348 -0.02876873 12.27102376 -0.02946846 16.21138859 -0.02692437 C19.51846215 -0.0258469 22.82551678 -0.03075785 26.13258624 -0.03552979 C33.94533911 -0.046588 41.75804389 -0.04708367 49.57080078 -0.04101562 C57.58921496 -0.03498286 65.60745336 -0.0472776 73.62583756 -0.06858569 C80.54687806 -0.08629095 87.46786305 -0.09218896 94.38892531 -0.08894795 C98.5062627 -0.08714862 102.62347476 -0.08963417 106.74079132 -0.10366249 C110.61843662 -0.11638213 114.49581124 -0.11416572 118.37345314 -0.1012516 C119.78256897 -0.0989164 121.19170472 -0.10150816 122.60079765 -0.10987473 C136.17988425 -0.18457801 149.65289997 1.22078973 161.90527344 7.4621582 C162.70698975 7.85798096 163.50870605 8.25380371 164.3347168 8.66162109 C170.56712796 11.83260805 175.94347909 15.45128713 181.03027344 20.2746582 C181.85527344 21.01071289 182.68027344 21.74676758 183.53027344 22.50512695 C196.19507963 34.33977055 205.59502378 50.98438562 208.03027344 68.2746582 C208.03027344 72.8946582 208.03027344 77.5146582 208.03027344 82.2746582 C110.68027344 82.2746582 13.33027344 82.2746582 -86.96972656 82.2746582 C-86.96972656 59.72542523 -78.41010233 38.87586165 -62.52294922 22.81176758 C-44.7466957 5.95778154 -24.06479355 -0.04796331 0 0 Z M-32.15722656 19.4621582 C-32.83865723 19.77113037 -33.52008789 20.08010254 -34.22216797 20.3984375 C-39.77904343 23.00864563 -44.462865 26.08124378 -48.96972656 30.2746582 C-50.21496094 31.40194336 -50.21496094 31.40194336 -51.48535156 32.55200195 C-61.6996105 42.23108266 -68.64413994 53.3211385 -70.96972656 67.2746582 C15.82027344 67.2746582 102.61027344 67.2746582 192.03027344 67.2746582 C191.19577759 60.59869143 190.51695515 57.13726033 187.65527344 51.5246582 C187.30368164 50.83364014 186.95208984 50.14262207 186.58984375 49.43066406 C177.50331635 32.43760125 162.13877617 21.84238571 144.03027344 16.2746582 C142.92568787 15.92542297 141.82110229 15.57618774 140.68304443 15.21636963 C134.46149266 13.69373379 128.09081451 13.99566921 121.7265625 14.01586914 C120.28674137 14.0131552 118.84692163 14.00959202 117.40710449 14.00524902 C113.51429974 13.99616736 109.62160156 13.99965265 105.72879505 14.00600719 C101.63981159 14.01109302 97.55083687 14.00636823 93.46185303 14.00323486 C86.59239069 13.99960108 79.72297142 14.00437716 72.85351562 14.01391602 C64.93738537 14.02478209 57.0213583 14.02128607 49.10523057 14.0102632 C42.28709482 14.0011528 35.46898994 13.99992384 28.65085006 14.00514054 C24.58838575 14.00824192 20.52596972 14.00872077 16.46350861 14.00206757 C12.63850136 13.99624053 8.81362544 14.00038775 4.9886322 14.01185608 C3.59396837 14.01447503 2.19929327 14.01378563 0.80463409 14.00933075 C-10.640928 13.97617491 -21.64988585 14.59984783 -32.15722656 19.4621582 Z " fill="#FF5109" transform="translate(101.9697265625,14.725341796875)"/>
<path d="M0 0 C38.28 0 76.56 0 116 0 C116.495 6.93 116.495 6.93 117 14 C84 14 51 14 17 14 C22.98153853 28.35569248 28.90816876 37.76977395 42.93261719 44.38284206 C52.99883521 48.35099893 61.93083371 48.70831369 72.625 48.63110352 C74.45654999 48.6362535 76.288095 48.64354285 78.11962891 48.65278625 C83.0536566 48.67117112 87.98713818 48.65844388 92.92114258 48.63869596 C98.10889218 48.6222007 103.29661012 48.63113738 108.484375 48.63621521 C117.19279612 48.64072408 125.9010016 48.62494135 134.609375 48.59692383 C144.64672682 48.56487753 154.68368993 48.56489173 164.72106934 48.5821386 C174.41630885 48.59805719 184.11140721 48.59123591 193.80664062 48.57420158 C197.91475225 48.56736745 202.0227495 48.56832589 206.13085938 48.57574654 C210.97711949 48.5834641 215.82294257 48.57110645 220.66912842 48.54389763 C222.43705957 48.53706969 224.20503199 48.53685495 225.97296143 48.54411316 C242.31715378 48.60343205 256.4979643 46.31452636 269.2109375 35.0390625 C275.46303962 28.59532506 277.74230452 22.51539096 282 14 C249.99 14 217.98 14 185 14 C185.33 9.38 185.66 4.76 186 0 C222.96 0 259.92 0 298 0 C298 7.85888825 297.99064301 12.92584116 295.5 19.9375 C295.23227783 20.70892334 294.96455566 21.48034668 294.6887207 22.27514648 C288.74146419 38.5339187 277.25775041 50.14909699 262 58 C253.72990059 61.3624611 246.07990163 63.14943164 237.15917969 63.14717102 C236.37595431 63.15084771 235.59272894 63.1545244 234.78576946 63.1583125 C232.16446461 63.16931466 229.54319945 63.17318732 226.921875 63.17700195 C225.0407753 63.18326935 223.15967683 63.1899164 221.27857971 63.19691467 C215.1023952 63.21792919 208.92621052 63.22831643 202.75 63.23828125 C200.62022896 63.24233015 198.49045804 63.24644711 196.36068726 63.25063133 C186.35098223 63.26967934 176.34128456 63.28390972 166.3315649 63.2922433 C154.79629494 63.30200665 143.26121732 63.32830434 131.72601509 63.36874419 C122.79839482 63.39896266 113.8708295 63.41371771 104.9431591 63.41702431 C99.61684502 63.41936875 94.29073652 63.4282498 88.96447754 63.45348549 C83.94768924 63.47687081 78.93124035 63.48095756 73.91441154 63.47072411 C72.08154098 63.47023113 70.24865311 63.47648061 68.41583443 63.49028015 C48.20011412 63.63386719 31.85741879 58.41674113 17.0625 44.12890625 C5.58674841 31.8078426 0 16.65547135 0 0 Z " fill="#FF4E04" transform="translate(15,308)"/>
<path d="M0 0 C4.85758996 3.86471993 7.25114344 8.44612653 8.77734375 14.4140625 C9.21730948 18.86083744 9.22170226 23.28408434 9.2109375 27.75 C9.21617935 29.02453033 9.2214212 30.29906067 9.2268219 31.61221313 C9.23322755 34.30038658 9.23337656 36.98770554 9.22338867 39.67578125 C9.2119157 43.09401529 9.23210304 46.51121361 9.26130581 49.92931175 C9.28423333 53.22371138 9.2771934 56.51803943 9.2734375 59.8125 C9.29028847 61.63326553 9.29028847 61.63326553 9.30747986 63.49081421 C9.24459761 71.23063018 8.5263626 78.78926927 3.47166443 85.02474976 C-3.19473599 91.14878104 -11.14129029 91.91927773 -19.72265625 91.8515625 C-20.62113281 91.87154297 -21.51960938 91.89152344 -22.4453125 91.91210938 C-29.55757445 91.90693306 -34.77923877 90.32567805 -40.24609375 85.703125 C-40.69210938 85.15398437 -41.138125 84.60484375 -41.59765625 84.0390625 C-42.05914062 83.49507813 -42.520625 82.95109375 -42.99609375 82.390625 C-45.79339167 77.88287739 -46.47573472 73.39492433 -46.51318359 68.16845703 C-46.5259433 66.95344513 -46.538703 65.73843323 -46.55184937 64.48660278 C-46.55407501 63.18649261 -46.55630066 61.88638245 -46.55859375 60.546875 C-46.56502997 59.18455875 -46.57175893 57.82224385 -46.57876587 56.45993042 C-46.59070754 53.61046141 -46.59444989 50.76111335 -46.59326172 47.91162109 C-46.59305863 44.27796766 -46.62036297 40.6450972 -46.65480614 37.0116291 C-46.67715044 34.1992951 -46.68109699 31.38714737 -46.68004227 28.57473373 C-46.68351898 26.58956854 -46.70513168 24.60446149 -46.72714233 22.61941528 C-46.68582684 14.41900062 -45.90560827 8.86107683 -40.546875 2.390625 C-40.00675781 1.94460937 -39.46664062 1.49859375 -38.91015625 1.0390625 C-38.37777344 0.57757813 -37.84539062 0.11609375 -37.296875 -0.359375 C-27.48168222 -6.16346264 -9.60355701 -6.04230828 0 0 Z " fill="#FF4E04" transform="translate(123.22265625,204.5859375)"/>
<path d="M0 0 C0.74121094 -0.0103125 1.48242188 -0.020625 2.24609375 -0.03125 C5.72478777 0.76656178 7.13496745 1.83925601 9.5625 4.5 C10.31620171 7.98674035 10.21103282 11.43345497 10.15844727 14.98828125 C10.16453506 16.5888588 10.16453506 16.5888588 10.17074585 18.22177124 C10.17626687 20.53858447 10.17024405 22.85544724 10.15408516 25.17221069 C10.1287373 28.83692669 10.13343985 32.50051395 10.14598083 36.1652832 C10.16675809 43.94364545 10.14702207 51.72166057 10.125 59.5 C10.10392208 68.51219786 10.09927759 77.52403437 10.12550163 86.53622437 C10.12887171 90.15046263 10.10760734 93.76401687 10.08509827 97.37817383 C10.08760888 99.589357 10.09116825 101.80053932 10.09594727 104.01171875 C10.08306168 105.0196347 10.07017609 106.02755066 10.05690002 107.06600952 C10.04346312 112.42448221 10.04346312 112.42448221 12.3455658 117.12817383 C15.65915164 119.17860175 18.83084469 119.12934663 22.5625 118.5 C26.30797604 116.77032287 26.30797604 116.77032287 28.5625 113.5 C28.6578009 112.05192109 28.6915119 110.59955563 28.69380188 109.14834595 C28.69781006 108.23423447 28.70181824 107.32012299 28.70594788 106.37831116 C28.7051548 104.86967751 28.7051548 104.86967751 28.7043457 103.33056641 C28.70782013 102.27356033 28.71129456 101.21655426 28.71487427 100.1275177 C28.72223961 97.82649896 28.72758083 95.52547308 28.73116493 93.22444534 C28.73831301 89.58539262 28.75396659 85.94647611 28.77250671 82.3074646 C28.82505869 71.95890151 28.87297736 61.61041245 28.88842773 51.26171875 C28.89849038 44.9374774 28.92777154 38.61357738 28.96974754 32.28947067 C28.98208704 29.87572177 28.98717346 27.46192471 28.98494911 25.04814529 C28.98260503 21.67446517 29.00469565 18.30177001 29.0324707 14.92822266 C29.02256859 13.4256617 29.02256859 13.4256617 29.01246643 11.89274597 C29.10408208 5.13416787 29.10408208 5.13416787 31.45695496 1.87924194 C33.88000735 0.2920161 35.18486717 -0.0114118 38.0625 0.0625 C39.19171875 0.06443359 39.19171875 0.06443359 40.34375 0.06640625 C43.15558199 0.61590159 44.4699099 1.55166136 46.5625 3.5 C47.06586456 5.62717724 47.06586456 5.62717724 47.07043457 8.1348114 C47.08171387 9.08658768 47.09299316 10.03836395 47.10461426 11.01898193 C47.09651733 12.06161194 47.08842041 13.10424194 47.08007812 14.1784668 C47.0870874 15.27796158 47.09409668 16.37745636 47.10131836 17.51026917 C47.11896884 21.15684028 47.10724591 24.80263926 47.09375 28.44921875 C47.09644383 30.98167571 47.10032535 33.51413167 47.10534668 36.04658508 C47.11125213 41.36213959 47.10302938 46.67741664 47.08398438 51.99291992 C47.06227036 58.12383133 47.06922467 64.25420949 47.09129 70.3851077 C47.11169688 76.29313281 47.10944856 82.20099356 47.09776306 88.10904884 C47.09509862 90.6172067 47.09835556 93.12537819 47.10768127 95.63352013 C47.11787449 99.14756254 47.10230256 102.66059317 47.08007812 106.17456055 C47.08817505 107.2070694 47.09627197 108.23957825 47.10461426 109.30337524 C47.02026191 116.52668533 45.70008508 122.14892975 40.66796875 127.5234375 C40.03503906 127.96945312 39.40210938 128.41546875 38.75 128.875 C38.12480469 129.33648437 37.49960938 129.79796875 36.85546875 130.2734375 C31.37898073 133.20293876 25.81016836 133.8641183 19.6875 133.8125 C18.98568604 133.80686035 18.28387207 133.8012207 17.56079102 133.79541016 C9.59732724 133.60942106 3.01806792 132.06489108 -2.82453156 126.41486549 C-8.39827024 119.79789793 -9.02315938 111.62403208 -8.95507812 103.33056641 C-8.9620874 102.26263855 -8.96909668 101.19471069 -8.97631836 100.09442139 C-8.99379508 96.59653029 -8.98231689 93.09946048 -8.96875 89.6015625 C-8.97144667 87.15920863 -8.97533055 84.71685582 -8.98034668 82.27450562 C-8.98622672 77.17231966 -8.97772216 72.07041487 -8.95898438 66.96826172 C-8.93612338 60.42430236 -8.94937313 53.88099668 -8.97327423 47.33706093 C-8.98771041 42.30137174 -8.9831374 37.26583831 -8.97276306 32.2301445 C-8.97009353 29.81636859 -8.97337346 27.40257857 -8.98268127 24.98881912 C-8.9928185 21.62318493 -8.97738737 18.25862069 -8.95507812 14.89306641 C-8.96317505 13.89457672 -8.97127197 12.89608704 -8.97961426 11.86734009 C-8.8967543 5.13378483 -8.8967543 5.13378483 -6.54162598 1.88363647 C-4.14619818 0.30844501 -2.85003517 -0.03951522 0 0 Z " fill="#FF4D03" transform="translate(146.4375,200.5)"/>
<path d="M0 0 C1.68609375 -0.00580078 1.68609375 -0.00580078 3.40625 -0.01171875 C5.16195313 0.00568359 5.16195313 0.00568359 6.953125 0.0234375 C8.108125 0.01183594 9.263125 0.00023438 10.453125 -0.01171875 C18.40965299 0.01552963 24.17203843 0.89020586 31.015625 5.1484375 C35.96856803 10.24289318 36.72928848 15.97463002 36.640625 22.7734375 C36.6401416 23.89770142 36.6401416 23.89770142 36.63964844 25.04467773 C36.52272382 30.32290728 35.35716272 33.88199322 32.828125 38.52734375 C32.621875 39.14480469 32.415625 39.76226562 32.203125 40.3984375 C33.7790653 43.68436362 33.7790653 43.68436362 35.15625 45.8359375 C37.83669176 52.39701883 37.27837625 61.36768283 35.47265625 68.13671875 C32.95096432 73.60210003 28.70363848 77.17754238 23.203125 79.3984375 C18.89105405 79.77318295 14.57493316 79.72778726 10.2487793 79.71411133 C8.14384608 79.71094235 6.04030742 79.73446034 3.93554688 79.75976562 C2.59635594 79.76203793 1.25716123 79.76274243 -0.08203125 79.76171875 C-1.90553101 79.76619019 -1.90553101 79.76619019 -3.76586914 79.77075195 C-6.796875 79.3984375 -6.796875 79.3984375 -8.46105957 78.31230164 C-10.49425349 75.39928174 -10.1860748 72.92614574 -10.20092773 69.40429688 C-10.20779099 68.69666702 -10.21465424 67.98903717 -10.22172546 67.25996399 C-10.24002961 64.92050117 -10.23615149 62.58170657 -10.23046875 60.2421875 C-10.23502851 58.61698182 -10.24033347 56.99177808 -10.24635315 55.36657715 C-10.25529107 51.96028815 -10.25285311 48.55423353 -10.24291992 45.14794922 C-10.23142314 40.77947809 -10.25164843 36.41181442 -10.28083706 32.0434494 C-10.29916827 28.68742726 -10.29891292 25.33159979 -10.29319954 21.97554016 C-10.29304598 20.36475999 -10.29911905 18.75396692 -10.31149101 17.14323425 C-10.32634384 14.89249746 -10.31576873 12.64326724 -10.29858398 10.39257812 C-10.29841782 9.11145142 -10.29825165 7.83032471 -10.29808044 6.51037598 C-9.796875 3.3984375 -9.796875 3.3984375 -7.93513489 1.48556519 C-5.16432248 0.07683704 -3.10418016 0.01032432 0 0 Z " fill="#FF4F06" transform="translate(24.796875,106.6015625)"/>
<path d="M0 0 C0.7528125 0.00128906 1.505625 0.00257813 2.28125 0.00390625 C5.2427306 0.5826463 6.40046359 1.23001827 8.5 3.4375 C8.92570937 6.35178143 9.10485673 8.90488104 9.109375 11.82421875 C9.13417938 13.04973198 9.13417938 13.04973198 9.15948486 14.30000305 C9.2080534 16.90841114 9.22935459 19.51623594 9.25 22.125 C9.27815241 23.8939097 9.30807881 25.66279211 9.33984375 27.43164062 C9.41715542 31.76719762 9.45758825 36.10089886 9.5 40.4375 C16.1 40.7675 22.7 41.0975 29.5 41.4375 C29.45359375 38.81296875 29.4071875 36.1884375 29.359375 33.484375 C29.32817007 30.93931003 29.3038877 28.39426647 29.28027344 25.84912109 C29.2601715 24.08177128 29.23288528 22.31448787 29.19824219 20.54736328 C29.14965991 18.00536715 29.12701774 15.46425104 29.109375 12.921875 C29.08872986 12.13319031 29.06808472 11.34450562 29.04681396 10.53192139 C29.04533834 6.91536702 29.17485203 4.86843472 31.38574219 1.93823242 C33.82069551 0.20986544 35.04135603 -0.07599257 38 0 C39.12921875 0.00193359 39.12921875 0.00193359 40.28125 0.00390625 C43.24167728 0.58244045 44.40370806 1.22893083 46.5 3.4375 C46.90214172 6.34680589 47.04683686 8.88093492 47.01757812 11.79272461 C47.0245874 12.64505173 47.03159668 13.49737885 47.03881836 14.37553406 C47.05644529 17.19730059 47.04475811 20.01806674 47.03125 22.83984375 C47.03394382 24.79895724 47.03782532 26.75806943 47.04284668 28.71717834 C47.0487483 32.82549758 47.04015832 36.93346919 47.02148438 41.04174805 C46.99870953 46.30914242 47.01180449 51.57572095 47.03577423 56.84308529 C47.05022708 60.88971607 47.0456283 64.93615339 47.03526306 68.98278999 C47.03259358 70.92487242 47.0358733 72.86697239 47.04518127 74.80903435 C47.05533673 77.52412303 47.03985956 80.23789061 47.01757812 82.95288086 C47.02567505 83.75665161 47.03377197 84.56042236 47.04211426 85.3885498 C46.98744559 88.9829903 46.8096888 91.02913071 44.60632324 93.93458557 C42.18798364 95.6601315 40.94659932 95.97786437 38 95.9375 C37.2471875 95.9478125 36.494375 95.958125 35.71875 95.96875 C32.52010712 95.20287776 31.4854493 94.06660091 29.5 91.4375 C29.15101027 88.47821721 29.03215801 85.90296479 29.109375 82.953125 C29.11503479 82.13753113 29.12069458 81.32193726 29.12652588 80.48162842 C29.14887273 77.88298228 29.19906378 75.28572758 29.25 72.6875 C29.27006729 70.92319703 29.28831766 69.1588724 29.3046875 67.39453125 C29.34532696 63.07455679 29.4236135 58.75758104 29.5 54.4375 C19.6 54.9325 19.6 54.9325 9.5 55.4375 C9.47421875 58.07363281 9.4484375 60.70976562 9.421875 63.42578125 C9.38346729 65.97756655 9.33830314 68.52914891 9.29248047 71.08081055 C9.26424721 72.85480061 9.24304437 74.62891701 9.22900391 76.40307617 C9.20760619 78.95297032 9.16097565 81.50134166 9.109375 84.05078125 C9.10753204 85.24155022 9.10753204 85.24155022 9.10565186 86.45637512 C8.95924779 91.9546405 8.95924779 91.9546405 6.60058594 94.43457031 C4.23831777 95.56244079 2.61263614 95.87052631 0 95.875 C-0.7528125 95.89433594 -1.505625 95.91367187 -2.28125 95.93359375 C-5.49231322 95.21562715 -6.5086304 94.05864201 -8.5 91.4375 C-8.89457777 88.51899003 -9.04737311 85.97806529 -9.01757812 83.06054688 C-9.0245874 82.2178273 -9.03159668 81.37510773 -9.03881836 80.5068512 C-9.05641445 77.72298164 -9.04477009 74.94012978 -9.03125 72.15625 C-9.03394445 70.22098597 -9.03782649 68.28572326 -9.04284668 66.35046387 C-9.04874391 62.29519762 -9.0401715 58.24028386 -9.02148438 54.18505859 C-8.99869474 48.98607068 -9.01181661 43.78790871 -9.03577423 38.58895111 C-9.0502261 34.59293389 -9.04562902 30.59711259 -9.03526306 26.60108948 C-9.03259409 24.68412681 -9.03587152 22.76714638 -9.04518127 20.85020447 C-9.05533682 18.17114117 -9.03986027 15.49341666 -9.01757812 12.81445312 C-9.02567505 12.02160416 -9.03377197 11.22875519 -9.04211426 10.41188049 C-8.98705221 6.83970564 -8.79802193 4.82977163 -6.60632324 1.94494629 C-4.17584152 0.20550736 -2.96103388 -0.07605395 0 0 Z " fill="#FF4C02" transform="translate(23.5,200.5625)"/>
<path d="M0 0 C4.69528413 3.21801036 8.64235553 7.71642565 9.94921875 13.3359375 C10.84187664 21.87197856 10.84187664 21.87197856 8.38671875 25.8984375 C5.12916464 27.81955915 2.72785973 28.26964555 -1.05078125 28.3359375 C-4.62465727 26.74754816 -5.86167697 25.61959392 -8.05078125 22.3359375 C-8.19515625 21.1809375 -8.33953125 20.0259375 -8.48828125 18.8359375 C-8.76587155 15.47835441 -8.76587155 15.47835441 -10.2421875 13.640625 C-12.73546296 11.84202024 -14.50244648 11.93635416 -17.55078125 11.9609375 C-18.50984375 11.95320312 -19.46890625 11.94546875 -20.45703125 11.9375 C-23.42001046 12.39265645 -24.26425312 12.98825631 -26.05078125 15.3359375 C-27.53809793 18.31057087 -27.48208645 20.00872593 -27.05078125 23.3359375 C-23.65006918 30.49780578 -16.71572773 34.93411843 -10.59765625 39.60546875 C-2.16196193 46.05429937 6.4792073 52.92590316 9.94921875 63.3359375 C10.65584897 71.0509494 10.31360936 77.75557148 5.94921875 84.3359375 C0.5338686 90.56280986 -7.0376811 92.84286329 -15.00390625 93.49609375 C-23.36628548 93.84201951 -31.96729098 92.49943701 -38.61328125 87.1484375 C-43.49699908 82.30533271 -45.12154844 77.36493796 -45.48828125 70.5859375 C-45.35612597 67.64294097 -45.08708888 66.40065979 -43.61328125 63.7734375 C-39.77463479 61.62005046 -36.34855221 61.71857813 -32.05078125 62.3359375 C-29.61328125 63.2734375 -29.61328125 63.2734375 -28.05078125 65.3359375 C-27.43209627 67.61151172 -26.98664671 69.84695684 -26.640625 72.1796875 C-25.92286447 74.8035538 -25.28446816 75.78164333 -23.05078125 77.3359375 C-20.41560467 77.81144873 -20.41560467 77.81144873 -17.55078125 77.7109375 C-16.59171875 77.71867187 -15.63265625 77.72640625 -14.64453125 77.734375 C-12.04648218 77.53081701 -12.04648218 77.53081701 -10.24609375 76.07421875 C-8.33887754 73.30065269 -8.39420188 71.03409533 -8.51171875 67.73828125 C-9.53789075 63.16512341 -12.70535815 60.43331592 -16.05078125 57.3359375 C-16.68757813 56.73910156 -17.324375 56.14226562 -17.98046875 55.52734375 C-21.39337242 52.45024787 -24.96005301 49.62082626 -28.61328125 46.8359375 C-35.99845371 41.13152843 -43.18740537 34.93145255 -45.05078125 25.3359375 C-45.69892129 17.89826489 -45.691778 11.45113321 -41.05078125 5.3359375 C-31.74260067 -4.98600533 -12.21679706 -6.0124551 0 0 Z " fill="#FF4E05" transform="translate(245.05078125,203.6640625)"/>
<path d="M0 0 C1.16466797 -0.00515625 2.32933594 -0.0103125 3.52929688 -0.015625 C4.74294922 -0.00015625 5.95660156 0.0153125 7.20703125 0.03125 C8.40134766 0.01578125 9.59566406 0.0003125 10.82617188 -0.015625 C17.96212862 0.01579363 23.90963373 0.62091559 30.01953125 4.53125 C32.45703125 7.03125 32.45703125 7.03125 34.01953125 9.53125 C34.37402344 10.06363281 34.72851562 10.59601563 35.09375 11.14453125 C36.50874128 14.79246235 36.39928451 18.33810554 36.39453125 22.21875 C36.3987207 23.02803955 36.40291016 23.8373291 36.40722656 24.67114258 C36.32720696 30.03624053 35.6706226 34.02553726 32.50390625 38.51171875 C32.3440625 39.17816406 32.18421875 39.84460938 32.01953125 40.53125 C32.94185547 41.92537109 32.94185547 41.92537109 33.8828125 43.34765625 C37.46285172 49.04193362 36.55592558 55.79250594 36.45703125 62.28125 C36.46270446 63.62110088 36.4698536 64.96094636 36.47851562 66.30078125 C36.41468611 75.95376811 36.41468611 75.95376811 34.73852539 78.40332031 C32.3069851 79.998792 29.90131604 79.94507125 27.0546875 80.02734375 C24.07263863 79.30043356 22.94100007 77.89414731 21.01953125 75.53125 C20.50537109 72.72216797 20.50537109 72.72216797 20.48046875 69.5234375 C20.45726562 68.37230469 20.4340625 67.22117187 20.41015625 66.03515625 C20.405 64.83761719 20.39984375 63.64007813 20.39453125 62.40625 C20.36910121 60.02854081 20.33566167 57.65089938 20.29296875 55.2734375 C20.28402588 53.69344971 20.28402588 53.69344971 20.27490234 52.08154297 C20.27462046 49.36424915 20.27462046 49.36424915 18.01953125 47.53125 C14.89756789 47.06638282 14.89756789 47.06638282 11.39453125 46.90625 C10.20601562 46.83148438 9.0175 46.75671875 7.79296875 46.6796875 C6.87773437 46.63070312 5.9625 46.58171875 5.01953125 46.53125 C5.04047852 47.38879883 5.06142578 48.24634766 5.08300781 49.12988281 C5.15129652 52.32043472 5.20138638 55.51061346 5.23925781 58.70166016 C5.25933767 60.0810168 5.28660791 61.46028869 5.32128906 62.83935547 C5.36995942 64.82481979 5.39039543 66.81091254 5.41015625 68.796875 C5.43110352 69.99086914 5.45205078 71.18486328 5.47363281 72.41503906 C4.93132912 76.13652528 3.96344501 77.27401019 1.01953125 79.53125 C-1.93963257 80.30369967 -3.84778253 79.92905142 -6.98046875 79.53125 C-9.47409666 77.21347197 -9.95026739 75.77660766 -10.3681488 72.38171387 C-10.37355179 71.14135376 -10.37895477 69.90099365 -10.38452148 68.62304688 C-10.39138474 67.93638443 -10.39824799 67.24972198 -10.40531921 66.54225159 C-10.42358463 64.27795597 -10.41975083 62.0143533 -10.4140625 59.75 C-10.41862408 58.17345962 -10.42392958 56.59692124 -10.4299469 55.02038574 C-10.43887717 51.71842361 -10.43645552 48.41670335 -10.42651367 45.11474609 C-10.415017 40.88427569 -10.43524577 36.65463912 -10.46443081 32.42427826 C-10.48277936 29.16944074 -10.48250322 25.91480362 -10.47679329 22.65992737 C-10.47663994 21.1002129 -10.48269519 19.54048497 -10.49508476 17.9808197 C-10.50997063 15.79983214 -10.49933839 13.62039237 -10.48217773 11.43945312 C-10.48201157 10.19909302 -10.4818454 8.95873291 -10.48167419 7.68078613 C-9.48164593 1.39668611 -5.90832195 0.02531686 0 0 Z " fill="#FF5007" transform="translate(126.98046875,106.46875)"/>
<path d="M0 0 C1.30166359 -0.01902626 1.30166359 -0.01902626 2.62962341 -0.03843689 C3.56403763 -0.03550125 4.49845184 -0.03256561 5.46118164 -0.02954102 C6.42407608 -0.03478287 7.38697052 -0.04002472 8.37904358 -0.04542542 C10.41577185 -0.05184977 12.4525372 -0.05050328 14.48925781 -0.04199219 C17.6062226 -0.0334885 20.72135142 -0.06222792 23.83813477 -0.09399414 C25.81664984 -0.09560638 27.79516816 -0.09502819 29.77368164 -0.09204102 C31.17226662 -0.10889198 31.17226662 -0.10889198 32.59910583 -0.12608337 C39.01357363 -0.05699177 39.01357363 -0.05699177 42.30712891 2.20849609 C43.68383789 4.40405273 43.68383789 4.40405273 43.62133789 8.02905273 C42.68383789 11.40405273 42.68383789 11.40405273 39.68383789 13.40405273 C36.58935547 13.63110352 36.58935547 13.63110352 32.82836914 13.59936523 C32.16673264 13.59653534 31.50509613 13.59370544 30.82341003 13.59078979 C28.71420052 13.57961192 26.60541864 13.55451254 24.49633789 13.52905273 C23.06470341 13.5190198 21.63306225 13.5098945 20.20141602 13.50170898 C16.69526011 13.48138344 13.19002659 13.44223265 9.68383789 13.40405273 C9.68383789 22.64405273 9.68383789 31.88405273 9.68383789 41.40405273 C15.71229048 41.24648823 15.71229048 41.24648823 21.73925781 41.04370117 C25.88710191 40.9891069 28.13338726 41.07154702 31.76196289 43.26342773 C33.68383789 45.40405273 33.68383789 45.40405273 34.24633789 47.90405273 C33.4666931 51.36914071 32.59737836 52.32482446 29.68383789 54.40405273 C26.25267103 54.90296561 22.89167059 54.77900799 19.43383789 54.65405273 C16.21633789 54.57155273 12.99883789 54.48905273 9.68383789 54.40405273 C9.68383789 63.64405273 9.68383789 72.88405273 9.68383789 82.40405273 C11.80305664 82.35764648 13.92227539 82.31124023 16.10571289 82.26342773 C18.16428229 82.23220905 20.22282506 82.20793476 22.28149414 82.18432617 C23.7093491 82.16424291 25.13712214 82.13697021 26.56469727 82.10229492 C28.62024157 82.05362605 30.67469644 82.03105306 32.73071289 82.01342773 C33.96660156 81.99248047 35.20249023 81.9715332 36.47583008 81.94995117 C39.68383789 82.40405273 39.68383789 82.40405273 42.12231445 84.2019043 C43.68383789 86.40405273 43.68383789 86.40405273 43.62133789 90.02905273 C42.68383789 93.40405273 42.68383789 93.40405273 39.68383789 95.40405273 C37.67285156 95.66474915 37.67285156 95.66474915 35.35180664 95.67871094 C34.48080322 95.68824295 33.6097998 95.69777496 32.71240234 95.70759583 C31.77485107 95.70668442 30.8372998 95.70577301 29.87133789 95.70483398 C28.90607178 95.70911911 27.94080566 95.71340424 26.94628906 95.71781921 C24.9053628 95.72356246 22.86441607 95.72406282 20.82348633 95.71972656 C17.69585401 95.71656488 14.56916584 95.74003194 11.44165039 95.76538086 C9.45988075 95.76765362 7.47810857 95.76835746 5.49633789 95.76733398 C4.09001099 95.78114861 4.09001099 95.78114861 2.65527344 95.79524231 C1.78427002 95.78901352 0.9132666 95.78278473 0.01586914 95.77636719 C-0.75007568 95.77699661 -1.51602051 95.77762604 -2.30517578 95.77827454 C-4.31616211 95.40405273 -4.31616211 95.40405273 -6.06265259 94.40971375 C-8.09602874 91.15623764 -7.73201157 87.66194602 -7.7043457 83.94116211 C-7.70960266 83.07747513 -7.71485962 82.21378815 -7.72027588 81.32392883 C-7.73349469 78.46503692 -7.72473117 75.60670045 -7.71459961 72.74780273 C-7.7166198 70.76387424 -7.71953079 68.77994646 -7.72329712 66.79602051 C-7.72772302 62.63648413 -7.72128082 58.4771409 -7.70727539 54.31762695 C-7.69018341 48.9807574 -7.70002316 43.64434043 -7.71799278 38.30748749 C-7.7288234 34.21031268 -7.72538759 30.11324552 -7.71760941 26.0160675 C-7.7156054 24.04803921 -7.71807367 22.08000121 -7.72504807 20.11198425 C-7.73265064 17.36337323 -7.72107519 14.61549936 -7.7043457 11.86694336 C-7.7104184 11.05022659 -7.71649109 10.23350983 -7.7227478 9.39204407 C-7.66131473 3.95532716 -7.66131473 3.95532716 -6.06166077 1.40037537 C-3.89603509 0.16424616 -2.49222898 0.01764972 0 0 Z " fill="#FF4C02" transform="translate(269.316162109375,200.595947265625)"/>
<path d="M0 0 C1.25490234 -0.01998047 2.50980469 -0.03996094 3.80273438 -0.06054688 C11.61906919 -0.05643085 17.9472094 0.24875196 23.85791016 5.92041016 C28.40238383 11.0769771 28.52014939 15.60198073 28.5625 22.1875 C28.583125 22.97382813 28.60375 23.76015625 28.625 24.5703125 C28.66105114 29.99600847 27.66299731 33.56193263 25.3125 38.4375 C25.5281902 40.88198897 26.30235521 42.41590483 27.34448242 44.63427734 C29.06661403 49.62129251 28.64539956 54.81107362 28.62817383 60.04003906 C28.62499813 62.06369128 28.64855924 64.08590152 28.67382812 66.109375 C28.67447266 67.38554687 28.67511719 68.66171875 28.67578125 69.9765625 C28.67876221 71.14396973 28.68174316 72.31137695 28.68481445 73.51416016 C28.3125 76.4375 28.3125 76.4375 26.91088867 78.31640625 C24.91926527 79.71331089 23.73095374 79.83998243 21.3125 79.8125 C20.2915625 79.82410156 20.2915625 79.82410156 19.25 79.8359375 C16.67239874 79.30586627 15.91343917 78.51966724 14.3125 76.4375 C13.92773438 73.86547852 13.92773438 73.86547852 13.90625 70.81640625 C13.88433594 69.71619141 13.86242187 68.61597656 13.83984375 67.48242188 C13.83082031 66.33322266 13.82179688 65.18402344 13.8125 64 C13.79461848 61.73032405 13.76389693 59.46070359 13.71875 57.19140625 C13.71166016 56.18408447 13.70457031 55.1767627 13.69726562 54.13891602 C13.2542406 51.02846434 12.51725231 49.65256242 10.3125 47.4375 C7.12653338 46.73625226 7.12653338 46.73625226 3.625 46.6875 C2.44550781 46.63078125 1.26601563 46.5740625 0.05078125 46.515625 C-0.85285156 46.48984375 -1.75648438 46.4640625 -2.6875 46.4375 C-2.60048828 47.88382813 -2.60048828 47.88382813 -2.51171875 49.359375 C-2.46660156 50.62265625 -2.42148437 51.8859375 -2.375 53.1875 C-2.28798828 55.06695312 -2.28798828 55.06695312 -2.19921875 56.984375 C-2.6875 60.4375 -2.6875 60.4375 -4.9765625 62.8984375 C-8.62929106 64.97217677 -10.69702116 64.49158875 -14.6875 63.4375 C-17.3228954 60.8021046 -16.94549931 59.6105381 -16.9621582 55.93383789 C-16.97169022 54.78246841 -16.98122223 53.63109894 -16.99104309 52.44483948 C-16.99013168 51.19589401 -16.98922028 49.94694855 -16.98828125 48.66015625 C-16.99256638 47.38273056 -16.9968515 46.10530487 -17.00126648 44.78916931 C-17.00701912 42.08302122 -17.00843441 39.37725338 -17.00317383 36.67114258 C-16.99738039 33.20290507 -17.01430408 29.73520181 -17.0375185 26.26705265 C-17.05579243 22.96059099 -17.05207062 19.65415935 -17.05078125 16.34765625 C-17.059991 15.10073502 -17.06920074 13.85381378 -17.07868958 12.56910706 C-17.07246078 11.41458542 -17.06623199 10.26006378 -17.05981445 9.07055664 C-17.06044388 8.05288712 -17.0610733 7.03521759 -17.0617218 5.98670959 C-16.6875 3.4375 -16.6875 3.4375 -15.33822632 1.61068726 C-11.30060025 -1.25889287 -4.74839637 -0.02642001 0 0 Z " fill="#FF4D02" transform="translate(284.6875,106.5625)"/>
<path d="M0 0 C4.30996078 2.36299008 6.61910988 5.33597827 8.9375 9.625 C9.99464198 13.41309209 10.00533589 16.37133496 9.6875 20.3125 C8.10368132 22.50586404 7.19750053 23.20994555 4.53125 23.74609375 C-1.76183803 23.75658223 -1.76183803 23.75658223 -4.25 21.75 C-5.59053246 18.67466084 -6.45656212 15.55283625 -7.3125 12.3125 C-8.97811399 10.64688601 -10.97212705 11.14134055 -13.25 11.125 C-14.14589844 11.11082031 -15.04179687 11.09664062 -15.96484375 11.08203125 C-18.50364534 11.08055231 -18.50364534 11.08055231 -20.3125 13.3125 C-20.62513102 15.47305725 -20.62513102 15.47305725 -20.5871582 17.98999023 C-20.59669022 18.96117294 -20.60622223 19.93235565 -20.61604309 20.93296814 C-20.61467598 22.51109032 -20.61467598 22.51109032 -20.61328125 24.12109375 C-20.61756638 25.19875504 -20.6218515 26.27641632 -20.62626648 27.38673401 C-20.63201726 29.66902971 -20.63250457 31.95134374 -20.62817383 34.23364258 C-20.62501602 37.73225081 -20.64845702 41.23001217 -20.67382812 44.72851562 C-20.67610119 46.94270726 -20.67680458 49.15690118 -20.67578125 51.37109375 C-20.684991 52.42115097 -20.69420074 53.47120819 -20.70368958 54.55308533 C-20.69746078 55.5274202 -20.69123199 56.50175507 -20.68481445 57.50561523 C-20.68544388 58.36340073 -20.6860733 59.22118622 -20.6867218 60.10496521 C-20.22592732 62.82319234 -19.53626618 63.71498862 -17.3125 65.3125 C-13.27579663 65.60607843 -10.2534388 65.2977347 -6.3125 64.3125 C-5.9825 57.3825 -5.6525 50.4525 -5.3125 43.3125 C-7.9525 43.3125 -10.5925 43.3125 -13.3125 43.3125 C-15.375 42.1875 -15.375 42.1875 -16.3125 40.3125 C-16.1875 37.25 -16.1875 37.25 -15.3125 34.3125 C-11.25364966 31.60659977 -8.1373546 31.98117646 -3.375 32 C-2.56353516 31.98388672 -1.75207031 31.96777344 -0.91601562 31.95117188 C-0.13033203 31.95052734 0.65535156 31.94988281 1.46484375 31.94921875 C2.17890381 31.94623779 2.89296387 31.94325684 3.62866211 31.94018555 C6.44381541 32.44926995 7.71760507 33.22803842 9.6875 35.3125 C10.43645798 39.35001765 10.3035575 43.38836456 10.26391602 47.48950195 C10.25016978 49.47547085 10.28591219 51.46158191 10.32226562 53.44726562 C10.30895902 62.18083674 9.28097369 67.72177401 3.05493164 73.9440918 C-1.40603721 77.8699405 -6.6636885 77.76655136 -12.3125 77.8125 C-13.07199951 77.81894531 -13.83149902 77.82539063 -14.61401367 77.83203125 C-20.34801215 77.70324692 -26.32598304 76.86794872 -30.84326172 73.00268555 C-36.70683855 66.44796063 -36.63061319 59.38023373 -36.6484375 51.0703125 C-36.6550943 49.98797333 -36.6617511 48.90563416 -36.66860962 47.79049683 C-36.67871274 45.50601902 -36.68342737 43.22151184 -36.68310547 40.93701172 C-36.68747651 37.45620741 -36.7238168 33.97667383 -36.76171875 30.49609375 C-36.76758792 28.27083764 -36.77155664 26.04557555 -36.7734375 23.8203125 C-36.78780853 22.78673615 -36.80217957 21.75315979 -36.81698608 20.68826294 C-36.77201447 13.51805057 -35.74860741 7.79294428 -30.49609375 2.47265625 C-29.91988281 2.11042969 -29.34367188 1.74820313 -28.75 1.375 C-27.88181641 0.80458984 -27.88181641 0.80458984 -26.99609375 0.22265625 C-19.93316561 -3.59558564 -7.35769485 -3.05646285 0 0 Z " fill="#FF4F06" transform="translate(204.3125,108.6875)"/>
<path d="M0 0 C4.10611511 0.58658787 5.00383858 1.27939128 7.5 4.5 C7.99879456 7.23866272 7.99879456 7.23866272 7.99829102 10.41430664 C8.00832657 11.60556656 8.01836212 12.79682648 8.02870178 14.02418518 C8.02051926 15.30655563 8.01233673 16.58892609 8.00390625 17.91015625 C8.0182987 19.92512206 8.03270683 21.94008791 8.0480566 23.95504665 C8.06500263 26.77456049 8.06447939 29.59395694 8.06335449 32.41351318 C8.06139083 37.35198524 8.06822556 42.29026477 8.10325623 47.22862244 C8.1201377 49.85728223 8.12284852 52.48607756 8.11024475 55.11476135 C8.12056984 56.89692299 8.12056984 56.89692299 8.13110352 58.71508789 C8.12966087 60.28583824 8.12966087 60.28583824 8.12818909 61.88832092 C8.29892356 64.51459994 8.29892356 64.51459994 9.80821228 66.34593201 C12.59461124 68.24669876 15.23013901 67.72946393 18.5 67.5 C20.81036915 67.07145005 20.81036915 67.07145005 22.5 66.5 C23.34303002 62.8283237 23.63351251 59.41973116 23.65771484 55.65576172 C23.66797699 54.50461884 23.67823914 53.35347595 23.68881226 52.16744995 C23.69611359 50.93398834 23.70341492 49.70052673 23.7109375 48.4296875 C23.73898802 45.81639979 23.76765234 43.20311861 23.796875 40.58984375 C23.83939121 36.47057415 23.87621473 32.35134748 23.90136719 28.23193359 C23.92629047 24.2559675 23.97471426 20.28043491 24.0234375 16.3046875 C24.02669037 15.06717743 24.02994324 13.82966736 24.03329468 12.55465698 C24.04986115 11.40981842 24.06642761 10.26497986 24.08349609 9.08544922 C24.09158295 8.07682831 24.0996698 7.0682074 24.10800171 6.02902222 C24.5 3.5 24.5 3.5 25.81118774 1.67825317 C28.68907609 -0.32959646 31.12063611 0.0849904 34.5 0.5 C37.25307494 2.58890848 38.36546283 3.77389987 39.00120544 7.20501709 C39.00137161 8.23789856 39.00153778 9.27078003 39.00170898 10.33496094 C39.01108994 11.5100824 39.02047089 12.68520386 39.03013611 13.89593506 C39.01890213 15.16262024 39.00766815 16.42930542 38.99609375 17.734375 C38.99754898 19.04150452 38.99900421 20.34863403 39.00050354 21.69537354 C39.0018872 24.46281061 38.98934296 27.22972927 38.96655273 29.99707031 C38.93827864 33.52535255 38.94087506 37.05276657 38.95364285 40.58111191 C38.9623221 43.96562157 38.94712663 47.34987986 38.93359375 50.734375 C38.93652939 51.99296326 38.93946503 53.25155151 38.94248962 54.54827881 C38.78924334 68.89806827 38.78924334 68.89806827 34.11912537 74.012146 C28.3755172 79.04078009 24.12057103 79.84260854 16.75 79.8125 C15.58984375 79.83666992 15.58984375 79.83666992 14.40625 79.86132812 C8.53996316 79.86624951 2.61047535 79.16470343 -2.02978516 75.18945312 C-6.50560075 70.19213596 -7.742543 64.9236452 -7.79052734 58.37451172 C-7.80328705 57.18663055 -7.81604675 55.99874939 -7.82919312 54.77487183 C-7.83141876 53.505961 -7.83364441 52.23705017 -7.8359375 50.9296875 C-7.8425943 49.61590118 -7.8492511 48.30211487 -7.85610962 46.94851685 C-7.86804394 44.17641915 -7.87179404 41.40444577 -7.87060547 38.63232422 C-7.87040159 35.08346774 -7.89778991 31.53540591 -7.93214989 27.9867382 C-7.9597364 24.59270873 -7.95856644 21.19882769 -7.9609375 17.8046875 C-7.97530853 16.53172821 -7.98967957 15.25876892 -8.00448608 13.94723511 C-7.99833282 12.76565826 -7.99217957 11.58408142 -7.98583984 10.36669922 C-7.98868988 9.32778534 -7.99153992 8.28887146 -7.99447632 7.21847534 C-7.11179865 2.36579104 -4.74101287 0.67728755 0 0 Z " fill="#FF4F06" transform="translate(73.5,106.5)"/>
<path d="M0 0 C0.76171509 -0.00145523 1.52343018 -0.00291046 2.30822754 -0.00440979 C3.9153222 -0.00275314 5.5224331 0.00878215 7.12939453 0.02954102 C9.58564826 0.05849824 12.03974269 0.05014629 14.49609375 0.03710938 C16.0599063 0.04334724 17.62371204 0.05173857 19.1875 0.0625 C19.91988892 0.05956436 20.65227783 0.05662872 21.40686035 0.05360413 C24.56153262 0.11180577 26.77902149 0.32119266 29.56054688 1.86694336 C31.09375 3.49609375 31.09375 3.49609375 31.53125 5.99609375 C31.00879151 8.98157086 30.50272301 9.70580996 28.09375 11.49609375 C25.45825195 11.83666992 25.45825195 11.83666992 22.33203125 11.7890625 C21.21376953 11.77939453 20.09550781 11.76972656 18.94335938 11.75976562 C17.77611328 11.73462891 16.60886719 11.70949219 15.40625 11.68359375 C14.22740234 11.67005859 13.04855469 11.65652344 11.83398438 11.64257812 C8.92037867 11.6071902 6.00700736 11.55338286 3.09375 11.49609375 C3.09375 19.08609375 3.09375 26.67609375 3.09375 34.49609375 C8.22472717 34.37770953 8.22472717 34.37770953 13.35473633 34.22583008 C18.59468944 34.164694 18.59468944 34.164694 21.08203125 35.81640625 C22.66672084 38.44735807 22.47520736 40.50801113 22.09375 43.49609375 C18.29923348 46.02577143 15.28177503 45.71969467 10.90625 45.62109375 C7.0390625 45.55921875 7.0390625 45.55921875 3.09375 45.49609375 C3.09375 53.08609375 3.09375 60.67609375 3.09375 68.49609375 C7.91419922 68.44388672 7.91419922 68.44388672 12.83203125 68.390625 C15.93968822 68.36723816 19.04733545 68.34901658 22.1550293 68.33129883 C24.31718321 68.31619931 26.47930643 68.29571804 28.64135742 68.26977539 C31.746659 68.23344358 34.85155614 68.21637913 37.95703125 68.203125 C38.92586746 68.18764114 39.89470367 68.17215729 40.89289856 68.15620422 C42.24395943 68.15586433 42.24395943 68.15586433 43.62231445 68.15551758 C44.41507278 68.14885574 45.20783112 68.14219391 46.02461243 68.1353302 C48.64449961 68.59211945 49.51914834 69.38208117 51.09375 71.49609375 C51.46875 74.55859375 51.46875 74.55859375 51.09375 77.49609375 C47.71483334 79.74870486 46.52936075 79.75632977 42.56835938 79.78662109 C41.43708618 79.7993808 40.30581299 79.8121405 39.14025879 79.82528687 C37.91834839 79.82751251 36.69643799 79.82973816 35.4375 79.83203125 C34.1836853 79.83868805 32.92987061 79.84534485 31.63806152 79.85220337 C28.9849631 79.86233647 26.33227442 79.86788448 23.67919922 79.86669922 C20.27923556 79.86649573 16.88010503 79.89382825 13.48033905 79.92824364 C10.23692356 79.95581842 6.99351688 79.95466049 3.75 79.95703125 C1.9171344 79.9785878 1.9171344 79.9785878 0.04724121 80.00057983 C-1.08403198 79.99442657 -2.21530518 79.98827332 -3.38085938 79.98193359 C-4.87619202 79.98620865 -4.87619202 79.98620865 -6.4017334 79.99057007 C-8.90625 79.49609375 -8.90625 79.49609375 -10.72633362 77.89749146 C-12.3101397 74.67408651 -12.29466343 72.17819635 -12.31030273 68.58789062 C-12.31716599 67.90122818 -12.32402924 67.21456573 -12.33110046 66.50709534 C-12.34936588 64.24279972 -12.34553208 61.97919705 -12.33984375 59.71484375 C-12.34440533 58.13830337 -12.34971083 56.56176499 -12.35572815 54.98522949 C-12.36465842 51.68326736 -12.36223677 48.3815471 -12.35229492 45.07958984 C-12.34079825 40.84911944 -12.36102702 36.61948287 -12.39021206 32.38912201 C-12.40856061 29.13428449 -12.40828447 25.87964737 -12.40257454 22.62477112 C-12.40242119 21.06505665 -12.40847644 19.50532872 -12.42086601 17.94566345 C-12.43575188 15.76467589 -12.42511964 13.58523612 -12.40795898 11.40429688 C-12.40779282 10.16393677 -12.40762665 8.92357666 -12.40745544 7.64562988 C-11.25357154 0.39471296 -6.41608788 -0.09841519 0 0 Z " fill="#FF4D04" transform="translate(230.90625,106.50390625)"/>
<path d="M0 0 C0.92941406 -0.00128906 1.85882813 -0.00257813 2.81640625 -0.00390625 C6.20792392 0.72898505 7.27488949 1.87645566 9.4375 4.5625 C9.94543457 7.21177673 9.94543457 7.21177673 9.95507812 10.26147461 C9.96768677 11.40623764 9.98029541 12.55100067 9.99328613 13.73045349 C9.98518921 14.96280228 9.97709229 16.19515106 9.96875 17.46484375 C9.9725769 18.7346962 9.97640381 20.00454865 9.98034668 21.31288147 C9.98306946 23.99909965 9.97769737 26.68386279 9.95898438 29.36987305 C9.93621661 32.80445099 9.94930466 36.23777709 9.97327423 39.67230892 C9.99124816 42.95736469 9.97864264 46.2422716 9.96875 49.52734375 C9.97684692 50.7576683 9.98494385 51.98799286 9.99328613 53.25559998 C9.98067749 54.40351517 9.96806885 55.55143036 9.95507812 56.73413086 C9.95030457 58.2449247 9.95030457 58.2449247 9.94543457 59.78623962 C9.29869124 63.32119862 7.92932639 65.0171759 5.4375 67.5625 C2.81640625 68.2265625 2.81640625 68.2265625 0 68.1875 C-1.39025391 68.20683594 -1.39025391 68.20683594 -2.80859375 68.2265625 C-5.71424824 67.52590823 -7.43883501 66.61523741 -9.50178528 64.43978882 C-11.95991121 60.08931434 -11.26730862 54.63364623 -11.2265625 49.78125 C-11.23134613 48.53500854 -11.23612976 47.28876709 -11.24105835 46.00476074 C-11.24532782 42.69859018 -11.22524459 39.39359939 -11.19726562 36.08758545 C-11.18750738 34.06403122 -11.19723053 32.04156102 -11.21435547 30.01806641 C-11.24524773 26.12611647 -11.2415018 22.23576685 -11.2265625 18.34375 C-11.23668365 17.13843628 -11.24680481 15.93312256 -11.25723267 14.69128418 C-11.12701323 5.39902514 -11.12701323 5.39902514 -8.19311523 2.30297852 C-5.187119 0.31413887 -3.57952336 -0.08463407 0 0 Z " fill="#FFFCFA" transform="translate(104.5625,214.4375)"/>
<path d="M0 0 C12.50308476 -0.37137876 12.50308476 -0.37137876 14.85546875 1.38671875 C18.15784554 6.04160481 17.59916403 11.51253435 17 17 C15.25 20.25 15.25 20.25 12 22 C7.90364336 22.3888609 4.13502509 22.22719918 0 22 C0 14.74 0 7.48 0 0 Z " fill="#FFFAF8" transform="translate(282,119)"/>
<path d="M0 0 C12.33449441 -0.36637112 12.33449441 -0.36637112 14.89453125 1.04296875 C16.60712292 4.07480065 16.43302948 7.11494724 16.375 10.5 C16.38660156 11.17675781 16.39820312 11.85351562 16.41015625 12.55078125 C16.39276611 15.48971434 16.37117733 17.4940376 14.6015625 19.90625 C9.36624511 23.4815887 8.69254567 22 0 22 C0 14.74 0 7.48 0 0 Z " fill="#FFFCFB" transform="translate(30,153)"/>
<path d="M0 0 C12.33449441 -0.36637112 12.33449441 -0.36637112 14.89453125 1.04296875 C16.60712292 4.07480065 16.43302948 7.11494724 16.375 10.5 C16.38660156 11.17675781 16.39820313 11.85351562 16.41015625 12.55078125 C16.39276611 15.48971434 16.37117733 17.4940376 14.6015625 19.90625 C9.36624511 23.4815887 8.69254567 22 0 22 C0 14.74 0 7.48 0 0 Z " fill="#FFFCFB" transform="translate(132,119)"/>
<path d="M0 0 C12.33814867 -0.36647966 12.33814867 -0.36647966 14.890625 1.046875 C16.60197732 4.05981923 16.47304182 7.06748944 16.4375 10.4375 C16.46650391 12.41556641 16.46650391 12.41556641 16.49609375 14.43359375 C16 18 16 18 14.36328125 20.45703125 C9.93642658 23.34729174 5.12998479 22.22304282 0 22 C0 14.74 0 7.48 0 0 Z " fill="#FFFCFB" transform="translate(30,119)"/>
</svg>
